<svg width="20" height="20" viewBox="0 0 25 24" fill="none" xmlns="http://www.w3.org/2000/svg">
<path d="M17.1617 14.6667H16.0771L15.6927 14.3067C17.0847 12.7387 17.8497 10.7369 17.8482 8.66667C17.8482 6.95257 17.3248 5.27696 16.3442 3.85173C15.3636 2.4265 13.9699 1.31567 12.3392 0.659715C10.7085 0.00375513 8.9142 -0.167874 7.18309 0.166531C5.45199 0.500937 3.86187 1.32636 2.61381 2.53841C1.36575 3.75047 0.515816 5.29472 0.171478 6.97589C-0.17286 8.65706 0.00386667 10.3996 0.67931 11.9833C1.35475 13.5669 2.49858 14.9204 3.96614 15.8727C5.4337 16.825 7.15908 17.3333 8.9241 17.3333C11.1345 17.3333 13.1665 16.5467 14.7316 15.24L15.1023 15.6133V16.6667L21.967 23.32L24.0127 21.3333L17.1617 14.6667ZM8.9241 14.6667C5.50548 14.6667 2.74588 11.9867 2.74588 8.66667C2.74588 5.34667 5.50548 2.66667 8.9241 2.66667C12.3427 2.66667 15.1023 5.34667 15.1023 8.66667C15.1023 11.9867 12.3427 14.6667 8.9241 14.6667Z" fill="#9A9999"/>
</svg>
