<svg width="36" height="36" viewBox="0 0 36 36" fill="none" xmlns="http://www.w3.org/2000/svg">
<g clip-path="url(#clip0_34_8)">
<path d="M17.4902 2.33521C19.6776 0.850458 22.886 -0.0537012 25.9509 0.00294154C28.8309 0.0553361 31.6117 0.949583 33.3724 2.99155C33.9532 3.66419 34.4172 4.44019 34.7878 5.31461C35.152 6.17346 35.4255 7.12081 35.6301 8.15383C36.0288 10.1696 36.0871 12.4155 35.891 14.7308C35.6744 17.2818 35.1499 19.9228 34.4341 22.4356C33.9138 24.2616 32.3697 28.8044 30.3813 32.0663C29.0742 34.2095 27.5407 35.8323 25.8806 35.9385C25.072 35.9909 24.3302 35.6801 23.6517 35.0216C23.0568 34.4431 22.5105 33.5815 22.0106 32.4479L21.9965 32.4203L21.3489 30.7684C21.2582 30.5362 21.1464 30.2275 21.0248 29.8919C20.4004 28.1671 19.4835 25.6345 18.1589 25.3123C17.05 25.0433 16.1641 27.2389 15.6185 28.5898C15.5524 28.7541 15.4905 28.907 15.3766 29.1718C15.3168 29.3099 15.1846 29.6384 15.0363 30.008C14.151 32.2086 12.6527 35.9343 10.5194 35.9987C9.78253 36.0213 9.06042 35.6978 8.35307 35.0443C7.73362 34.4715 7.11065 33.6268 6.48487 32.5244C6.07706 31.8142 5.64604 30.9816 5.20448 30.054C4.7826 29.1655 4.35229 28.1862 3.9262 27.1383C3.14432 25.2132 2.20565 22.7308 1.44839 20.0729C0.682683 17.3823 0.0913544 14.4829 0.00838563 11.7329C-0.0429425 10.0145 0.133542 8.34642 0.568776 6.83405C0.984323 5.39108 1.63542 4.08971 2.54807 3.01775C4.33893 0.917013 6.69651 0.0702048 9.17081 0.0178103C12.0396 -0.0423726 15.0588 0.979321 17.4902 2.33521ZM3.42276 11.124C3.72159 9.38156 4.3326 7.76087 5.33596 6.4149C6.25214 5.18646 7.48542 4.19663 9.09276 3.56435L9.60464 4.88342C8.25323 5.41515 7.22104 6.24072 6.45885 7.26312C5.60034 8.41439 5.073 9.82762 4.81003 11.3626L3.42276 11.124ZM30.5078 14.1573H30.4396C30.4396 13.5908 30.2294 13.0966 29.8096 12.6739C29.3899 12.2512 28.8991 12.0402 28.3373 12.0402V11.9708C28.8991 11.9708 29.3899 11.7591 29.8096 11.3357C30.2294 10.9109 30.4396 10.4167 30.4396 9.85311H30.5078C30.5078 10.4188 30.7181 10.913 31.1378 11.3357C31.5576 11.7584 32.0484 11.9701 32.6109 11.9701V12.0388C32.0484 12.0388 31.5576 12.2505 31.1378 12.6732C30.7181 13.0966 30.5078 13.5908 30.5078 14.1573ZM25.5677 15.6717H25.5121C25.5121 15.2214 25.3448 14.8263 25.0101 14.49C24.6761 14.153 24.2852 13.9838 23.8366 13.9838V13.9286C24.2838 13.9286 24.6761 13.7593 25.0101 13.423C25.3448 13.0846 25.5121 12.6916 25.5121 12.242H25.5677C25.5677 12.6923 25.735 13.0874 26.0697 13.4237C26.4037 13.7608 26.7946 13.93 27.2432 13.93V13.9852C26.796 13.9852 26.4037 14.1544 26.0697 14.4907C25.7343 14.8263 25.5677 15.22 25.5677 15.6717ZM26.7925 10.6589H26.6857C26.6857 9.77806 26.358 9.0063 25.7034 8.34712C25.0481 7.68724 24.2838 7.358 23.407 7.358V7.25038C24.2824 7.25038 25.0481 6.92044 25.7034 6.25984C26.358 5.59854 26.6857 4.82819 26.6857 3.94882H26.7925C26.7925 4.83032 27.1202 5.60208 27.7748 6.26126C28.4294 6.92044 29.1944 7.25038 30.0705 7.25038V7.358C29.1951 7.358 28.4294 7.68794 27.7748 8.34712C27.1202 9.0063 26.7925 9.77806 26.7925 10.6589ZM18.7087 3.22874C20.1065 4.23769 20.5741 4.72199 21.3953 5.7982C20.2957 5.43781 18.9407 4.84235 17.8474 4.19521C17.621 4.06068 17.4016 3.91837 17.1745 3.78526C14.8661 2.42867 11.9369 1.37299 9.19823 1.43105C7.10151 1.47565 5.11167 2.18298 3.61612 3.93749C2.83706 4.85227 2.27807 5.97521 1.91737 7.22772C1.52362 8.59494 1.36471 10.1165 1.41182 11.694C1.48987 14.2974 2.06151 17.0821 2.8026 19.6849C3.55284 22.3202 4.4669 24.7402 5.22487 26.6066C5.63409 27.6134 6.05385 28.5672 6.47081 29.4444C6.88776 30.3217 7.3026 31.1203 7.70057 31.8149L7.70339 31.8206C8.25604 32.7948 8.79042 33.5269 9.3051 34.0027C9.73401 34.3985 10.1271 34.5968 10.4807 34.5862C11.6908 34.5493 12.974 31.3596 13.732 29.4756C13.8452 29.1931 13.9464 28.9424 14.0885 28.6118C14.1173 28.5459 14.2108 28.3137 14.3142 28.0574C15.0328 26.2767 16.2014 23.3829 18.4893 23.938C20.546 24.4379 21.6168 27.3954 22.346 29.4097C22.4542 29.7085 22.5534 29.9832 22.6589 30.253L23.3064 31.9048L23.305 31.9055C23.7248 32.8515 24.1649 33.5538 24.6262 34.002C25.0087 34.3738 25.3975 34.5508 25.7927 34.526C26.9099 34.4538 28.0954 33.1106 29.181 31.3292C31.0872 28.2032 32.5764 23.8141 33.0799 22.0476C33.7724 19.6169 34.2794 17.0687 34.4875 14.6146C34.6732 12.4233 34.6204 10.3105 34.2485 8.43067C34.0607 7.48191 33.8153 6.62518 33.4947 5.8683C33.1797 5.12698 32.7916 4.47488 32.3099 3.91695C30.8383 2.21059 28.4407 1.46149 25.9291 1.41547C23.3339 1.36803 20.6444 2.06403 18.7087 3.22874Z" fill="white"/>
</g>
<defs>
<clipPath id="clip0_34_8">
<rect width="36" height="36" fill="white"/>
</clipPath>
</defs>
</svg>
