<svg width="24" height="24" viewBox="0 0 24 24" fill="none" xmlns="http://www.w3.org/2000/svg">
<path d="M10.1999 4.7998H13.7999C13.7999 4.32241 13.6103 3.86458 13.2727 3.52701C12.9351 3.18945 12.4773 2.9998 11.9999 2.9998C11.5225 2.9998 11.0647 3.18945 10.7271 3.52701C10.3895 3.86458 10.1999 4.32241 10.1999 4.7998V4.7998ZM8.9999 4.7998C8.9999 4.00416 9.31597 3.24109 9.87858 2.67848C10.4412 2.11588 11.2043 1.7998 11.9999 1.7998C12.7956 1.7998 13.5586 2.11588 14.1212 2.67848C14.6838 3.24109 14.9999 4.00416 14.9999 4.7998H20.9999C21.159 4.7998 21.3116 4.86302 21.4242 4.97554C21.5367 5.08806 21.5999 5.24067 21.5999 5.3998C21.5999 5.55893 21.5367 5.71155 21.4242 5.82407C21.3116 5.93659 21.159 5.9998 20.9999 5.9998H19.7351L18.3023 18.4126C18.201 19.29 17.7807 20.0996 17.1213 20.6873C16.462 21.275 15.6096 21.5997 14.7263 21.5998H9.2735C8.39025 21.5997 7.53784 21.275 6.87847 20.6873C6.2191 20.0996 5.79878 19.29 5.6975 18.4126L4.2647 5.9998H2.9999C2.84077 5.9998 2.68816 5.93659 2.57564 5.82407C2.46312 5.71155 2.3999 5.55893 2.3999 5.3998C2.3999 5.24067 2.46312 5.08806 2.57564 4.97554C2.68816 4.86302 2.84077 4.7998 2.9999 4.7998H8.9999ZM6.8891 18.2758C6.95681 18.8607 7.23716 19.4003 7.6768 19.7919C8.11645 20.1835 8.68472 20.3999 9.2735 20.3998H14.7263C15.3151 20.3999 15.8834 20.1835 16.323 19.7919C16.7626 19.4003 17.043 18.8607 17.1107 18.2758L18.5267 5.9998H5.4731L6.8891 18.2758ZM10.1999 8.9998C10.359 8.9998 10.5116 9.06302 10.6242 9.17554C10.7367 9.28806 10.7999 9.44067 10.7999 9.5998V16.7998C10.7999 16.9589 10.7367 17.1115 10.6242 17.2241C10.5116 17.3366 10.359 17.3998 10.1999 17.3998C10.0408 17.3998 9.88816 17.3366 9.77564 17.2241C9.66312 17.1115 9.5999 16.9589 9.5999 16.7998V9.5998C9.5999 9.44067 9.66312 9.28806 9.77564 9.17554C9.88816 9.06302 10.0408 8.9998 10.1999 8.9998ZM14.3999 9.5998C14.3999 9.44067 14.3367 9.28806 14.2242 9.17554C14.1116 9.06302 13.959 8.9998 13.7999 8.9998C13.6408 8.9998 13.4882 9.06302 13.3756 9.17554C13.2631 9.28806 13.1999 9.44067 13.1999 9.5998V16.7998C13.1999 16.9589 13.2631 17.1115 13.3756 17.2241C13.4882 17.3366 13.6408 17.3998 13.7999 17.3998C13.959 17.3998 14.1116 17.3366 14.2242 17.2241C14.3367 17.1115 14.3999 16.9589 14.3999 16.7998V9.5998Z" fill="white"/>
</svg>

