<svg width="36" height="36" viewBox="0 0 100 123" fill="none" xmlns="http://www.w3.org/2000/svg">
<g clip-path="url(#clip0_30_5)">
<path d="M65.72 12.72C65.41 12.72 65.14 12.68 64.87 12.59C63.49 12.59 62.33 11.47 62.33 10.05V5.05H37.7V10.05C37.7 11.34 36.67 12.46 35.42 12.55C35.15 12.64 34.84 12.68 34.53 12.68H25.25V23.03H73.84V12.67H65.63L65.72 12.72ZM22.85 75.03C25.61 75.03 27.85 77.27 27.85 80.03C27.85 82.79 25.61 85.03 22.85 85.03C20.09 85.03 17.85 82.79 17.85 80.03C17.85 77.27 20.09 75.03 22.85 75.03ZM17.07 62.7C16.38 61.67 16.65 60.27 17.69 59.58C18.72 58.89 20.12 59.16 20.81 60.2L22.04 62.02L26.91 56.1C27.7 55.14 29.12 55 30.08 55.79C31.04 56.58 31.18 58 30.39 58.96L23.65 67.16C23.5 67.35 23.32 67.52 23.11 67.67C22.08 68.36 20.68 68.09 19.99 67.05L17.07 62.7ZM17.07 45.38C16.38 44.35 16.65 42.95 17.69 42.26C18.72 41.57 20.12 41.84 20.81 42.88L22.04 44.7L26.91 38.77C27.7 37.81 29.12 37.67 30.08 38.46C31.04 39.25 31.18 40.67 30.39 41.63L23.65 49.83C23.5 50.02 23.32 50.19 23.11 50.34C22.08 51.03 20.68 50.76 19.99 49.72L17.07 45.38ZM69.2 122.21C68.75 122.61 68.13 122.88 67.5 122.88C67.37 122.88 67.23 122.88 67.1 122.84H5.62C4.1 122.84 2.68 122.22 1.65 121.19C0.62 120.16 0 118.78 0 117.21V19.85C0 18.29 0.62 16.91 1.65 15.88C2.68 14.85 4.06 14.23 5.62 14.23H20.25V11.46C20.25 10.43 20.65 9.5 21.37 8.78C22.04 8.11 22.98 7.66 24.05 7.66H32.71V4.19C32.71 3.03 33.2 2 33.96 1.25C34.71 0.49 35.74 0 36.9 0H63.27C64.43 0 65.46 0.49 66.21 1.25C66.97 2.01 67.46 3.03 67.46 4.19V7.67H75.27C76.3 7.67 77.23 8.12 77.95 8.79C78.62 9.46 79.07 10.44 79.07 11.47V14.24H93.7C95.26 14.24 96.64 14.86 97.67 15.89C98.7 16.92 99.32 18.3 99.32 19.86V90.09C99.52 91.1 99.31 91.88 98.56 92.63L69.51 122.03C69.42 122.12 69.38 122.16 69.29 122.21H69.2V122.21ZM64.96 117.79C64.96 84.17 60.72 88.16 94.18 88.16V19.85C94.18 19.72 94.14 19.54 94 19.45C93.91 19.36 93.78 19.27 93.6 19.27H78.97V24.36C78.97 25.39 78.57 26.32 77.85 27.04C77.18 27.71 76.24 28.16 75.17 28.16H24C22.97 28.16 21.99 27.71 21.32 27.04C21.23 26.95 21.19 26.86 21.1 26.77C20.56 26.1 20.21 25.25 20.21 24.36V19.27H5.58C5.45 19.27 5.27 19.31 5.18 19.45C5.09 19.54 5 19.72 5 19.85V117.21C5 117.39 5.04 117.52 5.18 117.61C5.27 117.7 5.4 117.79 5.58 117.79H64.92H64.96V117.79ZM41.23 81.8C39.85 81.8 38.69 80.68 38.69 79.26C38.69 77.88 39.81 76.72 41.23 76.72H65.36C66.74 76.72 67.9 77.84 67.9 79.26C67.9 80.64 66.78 81.8 65.36 81.8H41.23ZM41.23 45.52C39.85 45.52 38.69 44.4 38.69 42.98C38.69 41.6 39.81 40.44 41.23 40.44H78.39C79.77 40.44 80.93 41.56 80.93 42.98C80.93 44.36 79.81 45.52 78.39 45.52H41.23ZM41.23 63.66C39.85 63.66 38.69 62.54 38.69 61.12C38.69 59.74 39.81 58.58 41.23 58.58H78.39C79.77 58.58 80.93 59.7 80.93 61.12C80.93 62.5 79.81 63.66 78.39 63.66H41.23Z" fill="white"/>
</g>
<defs>
<clipPath id="clip0_30_5">
<rect width="99.39" height="122.88" fill="white"/>
</clipPath>
</defs>
</svg>