<svg width="36" height="36" viewBox="0 0 32 36" fill="none" xmlns="http://www.w3.org/2000/svg">
<path d="M15.986 26.2125C11.4719 26.2125 7.78752 22.5281 7.78752 18.0141C7.78752 14.0203 10.6 10.6734 14.4531 9.95625V8.50781C9.79846 9.23906 6.35315 13.2328 6.35315 18.0141C6.35315 23.3156 10.6703 27.6469 15.986 27.6469C20.7672 27.6469 24.761 24.2016 25.4922 19.5469H24.0438C23.3125 23.3859 19.9797 26.2125 15.986 26.2125Z" fill="white"/>
<path d="M16.9704 8.43746L16.1829 8.35309V17.8172H25.6469L25.5625 17.0297C25.1125 12.5156 21.4844 8.88746 16.9704 8.43746ZM17.6032 16.3968V9.98434C20.8235 10.6312 23.3688 13.1765 24.0157 16.3968H17.6032Z" fill="white"/>
<path d="M31.4266 28.814L31.4125 27.6047C31.4125 22.9922 31.4266 9.78748 31.4125 4.02185C31.4125 1.9406 29.7953 0.365601 27.686 0.365601H19.0235H15.8031C12.1047 0.365601 8.27971 0.365601 4.52502 0.365601C3.51252 0.365601 2.50002 0.801538 1.74065 1.57498C0.995337 2.32029 0.587524 3.30466 0.587524 4.33123C0.615649 12.5015 0.615649 17.7328 0.601587 24.3562V31.514C0.601587 32.625 1.02346 33.6656 1.7969 34.439C2.57034 35.2125 3.61096 35.6343 4.7219 35.6343H16.6188C20.2891 35.6343 24.0438 35.6344 27.7563 35.6203C28.1641 35.6203 28.5719 35.55 28.9235 35.4375C30.4 34.9312 31.4125 33.5109 31.4407 31.9218C31.4266 30.8812 31.4266 29.8265 31.4266 28.814ZM29.9781 31.8937C29.9641 32.8781 29.3453 33.764 28.4313 34.0734C28.2344 34.1437 27.9953 34.1859 27.7281 34.1859C24.0297 34.2 20.275 34.2 16.5906 34.2H4.69377C3.96252 34.2 3.27346 33.9328 2.78127 33.4265C2.28909 32.9343 2.00784 32.2593 2.00784 31.5281V24.3703C2.00784 17.7469 2.0219 12.5156 1.99377 4.34529C1.99377 3.69841 2.2469 3.07966 2.72502 2.60154C3.21721 2.10935 3.86409 1.8281 4.4969 1.8281C8.25159 1.8281 12.0766 1.8281 15.775 1.8281H18.9953H27.6578C29.0078 1.8281 29.95 2.74216 29.95 4.04998C29.9641 9.80154 29.95 23.0203 29.95 27.6328L29.9641 28.8422C29.9922 29.8265 29.9922 30.8672 29.9781 31.8937Z" fill="white"/>
</svg>
