<svg width="36" height="36" viewBox="0 0 36 36" fill="none" xmlns="http://www.w3.org/2000/svg">
<path d="M15.6286 22.3561C17.2674 21.6127 18.6021 20.3304 19.4106 18.7228C20.2191 17.1151 20.4526 15.2791 20.0723 13.5202C19.692 11.7614 18.7208 10.1858 17.3203 9.05584C15.9199 7.92583 14.1747 7.30953 12.3752 7.30952C10.5757 7.30951 8.83045 7.9258 7.42999 9.05579C6.02953 10.1858 5.0583 11.7613 4.67798 13.5202C4.29765 15.279 4.53116 17.115 5.33965 18.7227C6.14813 20.3303 7.48282 21.6126 9.12155 22.3561C6.15398 23.1291 3.55628 24.9285 1.78955 27.4351C1.74688 27.4954 1.71654 27.5637 1.70026 27.6358C1.68398 27.7079 1.68209 27.7825 1.69468 27.8554C1.70727 27.9283 1.7341 27.9979 1.77365 28.0604C1.81319 28.1229 1.86466 28.177 1.92512 28.2195C1.98558 28.2621 2.05384 28.2923 2.12599 28.3085C2.19814 28.3247 2.27278 28.3264 2.34562 28.3137C2.41846 28.301 2.48808 28.2741 2.5505 28.2344C2.61292 28.1948 2.6669 28.1432 2.70938 28.0827C3.79953 26.5319 5.24681 25.2662 6.92903 24.3925C8.61124 23.5187 10.479 23.0626 12.3746 23.0625C14.2702 23.0624 16.138 23.5185 17.8203 24.3921C19.5025 25.2657 20.9499 26.5313 22.0402 28.082C22.1262 28.2036 22.257 28.286 22.4038 28.3113C22.5506 28.3366 22.7014 28.3026 22.8231 28.2169C22.9449 28.1311 23.0277 28.0005 23.0534 27.8538C23.079 27.7071 23.0454 27.5562 22.96 27.4342C21.1933 24.9281 18.5958 23.129 15.6286 22.3561ZM5.62508 15.1875C5.62508 13.8525 6.02096 12.5474 6.76266 11.4374C7.50436 10.3274 8.55857 9.4622 9.79197 8.95131C11.0254 8.44041 12.3826 8.30674 13.6919 8.56719C15.0013 8.82764 16.204 9.47052 17.1481 10.4145C18.0921 11.3585 18.7349 12.5613 18.9954 13.8706C19.2558 15.18 19.1222 16.5372 18.6113 17.7706C18.1004 19.004 17.2352 20.0582 16.1252 20.7999C15.0151 21.5416 13.7101 21.9375 12.3751 21.9375C10.5855 21.9355 8.86978 21.2237 7.60434 19.9582C6.33891 18.6928 5.6271 16.9771 5.62508 15.1875ZM34.288 28.218C34.2276 28.2606 34.1594 28.2908 34.0873 28.307C34.0153 28.3232 33.9407 28.325 33.8679 28.3124C33.7951 28.2998 33.7255 28.2729 33.6631 28.2334C33.6007 28.1939 33.5467 28.1424 33.5042 28.082C32.4127 26.5327 30.9651 25.2681 29.2832 24.3947C27.6013 23.5212 25.7342 23.0643 23.839 23.0625C23.6899 23.0625 23.5468 23.0032 23.4413 22.8977C23.3358 22.7923 23.2765 22.6492 23.2765 22.5C23.2765 22.3508 23.3358 22.2077 23.4413 22.1022C23.5468 21.9968 23.6899 21.9375 23.839 21.9375C24.803 21.9365 25.7555 21.7291 26.6326 21.3292C27.5097 20.9292 28.2909 20.3461 28.9238 19.619C29.5566 18.8919 30.0264 18.0376 30.3015 17.1138C30.5765 16.1899 30.6506 15.2179 30.5185 14.263C30.3865 13.3081 30.0515 12.3926 29.5361 11.5781C29.0206 10.7635 28.3367 10.0688 27.5303 9.54069C26.7239 9.01258 25.8137 8.6633 24.861 8.51637C23.9084 8.36944 22.9353 8.42826 22.0072 8.68887C21.936 8.70909 21.8616 8.71507 21.7881 8.70646C21.7146 8.69785 21.6435 8.67483 21.5789 8.63871C21.5144 8.6026 21.4576 8.5541 21.4118 8.49599C21.366 8.43788 21.3321 8.3713 21.312 8.30008C21.292 8.22885 21.2862 8.15437 21.295 8.0809C21.3038 8.00744 21.327 7.93643 21.3633 7.87195C21.3996 7.80746 21.4482 7.75077 21.5065 7.70512C21.5647 7.65946 21.6313 7.62575 21.7026 7.6059C23.6137 7.06707 25.6578 7.27011 27.4256 8.17434C29.1933 9.07858 30.5542 10.6173 31.2357 12.4823C31.9172 14.3472 31.869 16.4008 31.1007 18.2318C30.3324 20.0627 28.9008 21.5358 27.0926 22.3561C30.0598 23.129 32.6573 24.9282 34.424 27.4342C34.5099 27.5562 34.5439 27.7073 34.5183 27.8543C34.4928 28.0013 34.41 28.1321 34.288 28.218V28.218Z" fill="white"/>
</svg>
